<svg width="3803" height="753" xmlns="http://www.w3.org/2000/svg" xmlns:xlink="http://www.w3.org/1999/xlink" xml:space="preserve" overflow="hidden"><g transform="translate(-154 -625)"><path d="M157.229 628.234 842.732 628.234 842.732 946.251 157.229 946.251Z" fill="#BFBFBF" fill-rule="evenodd"/><path d="M842.732 628.234 1464.63 628.234 1464.63 734.24 842.732 734.24Z" fill="#C65911" fill-rule="evenodd"/><path d="M1464.63 628.234 3330.33 628.234 3330.33 734.24 1464.63 734.24Z" fill="#8EA9DB" fill-rule="evenodd"/><path d="M3330.33 628.234 3952.23 628.234 3952.23 734.24 3330.33 734.24Z" fill="#A9D08E" fill-rule="evenodd"/><path d="M842.732 734.24 1464.63 734.24 1464.63 840.246 842.732 840.246Z" fill="#C65911" fill-rule="evenodd"/><path d="M1464.63 734.24 2086.53 734.24 2086.53 840.246 1464.63 840.246Z" fill="#8EA9DB" fill-rule="evenodd"/><path d="M2086.53 734.24 2708.43 734.24 2708.43 840.246 2086.53 840.246Z" fill="#8EA9DB" fill-rule="evenodd"/><path d="M2708.43 734.24 3330.33 734.24 3330.33 840.246 2708.43 840.246Z" fill="#8EA9DB" fill-rule="evenodd"/><path d="M3330.33 734.24 3952.23 734.24 3952.23 840.246 3330.33 840.246Z" fill="#A9D08E" fill-rule="evenodd"/><path d="M842.732 840.246 1153.68 840.246 1153.68 946.251 842.732 946.251Z" fill="#F4B084" fill-rule="evenodd"/><path d="M1153.68 840.246 1464.63 840.246 1464.63 946.251 1153.68 946.251Z" fill="#F4B084" fill-rule="evenodd"/><path d="M1464.63 840.246 1775.58 840.246 1775.58 946.251 1464.63 946.251Z" fill="#B4C6E7" fill-rule="evenodd"/><path d="M1775.58 840.246 2086.53 840.246 2086.53 946.251 1775.58 946.251Z" fill="#B4C6E7" fill-rule="evenodd"/><path d="M2086.53 840.246 2397.48 840.246 2397.48 946.251 2086.53 946.251Z" fill="#B4C6E7" fill-rule="evenodd"/><path d="M2397.48 840.246 2708.43 840.246 2708.43 946.251 2397.48 946.251Z" fill="#B4C6E7" fill-rule="evenodd"/><path d="M2708.43 840.246 3019.38 840.246 3019.38 946.251 2708.43 946.251Z" fill="#B4C6E7" fill-rule="evenodd"/><path d="M3019.38 840.246 3330.33 840.246 3330.33 946.251 3019.38 946.251Z" fill="#B4C6E7" fill-rule="evenodd"/><path d="M3330.33 840.246 3641.28 840.246 3641.28 946.251 3330.33 946.251Z" fill="#C6E0B4" fill-rule="evenodd"/><path d="M3641.28 840.246 3952.23 840.246 3952.23 946.251 3641.28 946.251Z" fill="#C6E0B4" fill-rule="evenodd"/><path d="M157.229 946.251 842.732 946.251 842.732 1052.26 157.229 1052.26Z" fill="#F2F2F2" fill-rule="evenodd"/><path d="M842.732 946.251 1153.68 946.251 1153.68 1052.26 842.732 1052.26Z" fill="#FCE4D6" fill-rule="evenodd"/><path d="M1153.68 946.251 1464.63 946.251 1464.63 1052.26 1153.68 1052.26Z" fill="#FCE4D6" fill-rule="evenodd"/><path d="M1464.63 946.251 1775.58 946.251 1775.58 1052.26 1464.63 1052.26Z" fill="#D9E1F2" fill-rule="evenodd"/><path d="M1775.58 946.251 2086.53 946.251 2086.53 1052.26 1775.58 1052.26Z" fill="#D9E1F2" fill-rule="evenodd"/><path d="M2086.53 946.251 2397.48 946.251 2397.48 1052.26 2086.53 1052.26Z" fill="#D9E1F2" fill-rule="evenodd"/><path d="M2397.48 946.251 2708.43 946.251 2708.43 1052.26 2397.48 1052.26Z" fill="#D9E1F2" fill-rule="evenodd"/><path d="M2708.43 946.251 3019.38 946.251 3019.38 1052.26 2708.43 1052.26Z" fill="#D9E1F2" fill-rule="evenodd"/><path d="M3019.38 946.251 3330.33 946.251 3330.33 1052.26 3019.38 1052.26Z" fill="#D9E1F2" fill-rule="evenodd"/><path d="M3330.33 946.251 3641.28 946.251 3641.28 1052.26 3330.33 1052.26Z" fill="#E2EFDA" fill-rule="evenodd"/><path d="M3641.28 946.251 3952.23 946.251 3952.23 1052.26 3641.28 1052.26Z" fill="#E2EFDA" fill-rule="evenodd"/><path d="M157.229 1052.26 842.732 1052.26 842.732 1158.26 157.229 1158.26Z" fill="#F2F2F2" fill-rule="evenodd"/><path d="M842.732 1052.26 1153.68 1052.26 1153.68 1158.26 842.732 1158.26Z" fill="#FCE4D6" fill-rule="evenodd"/><path d="M1153.68 1052.26 1464.63 1052.26 1464.63 1158.26 1153.68 1158.26Z" fill="#FCE4D6" fill-rule="evenodd"/><path d="M1464.63 1052.26 1775.58 1052.26 1775.58 1158.26 1464.63 1158.26Z" fill="#D9E1F2" fill-rule="evenodd"/><path d="M1775.58 1052.26 2086.53 1052.26 2086.53 1158.26 1775.58 1158.26Z" fill="#D9E1F2" fill-rule="evenodd"/><path d="M2086.53 1052.26 2397.48 1052.26 2397.48 1158.26 2086.53 1158.26Z" fill="#D9E1F2" fill-rule="evenodd"/><path d="M2397.48 1052.26 2708.43 1052.26 2708.43 1158.26 2397.48 1158.26Z" fill="#D9E1F2" fill-rule="evenodd"/><path d="M2708.43 1052.26 3019.38 1052.26 3019.38 1158.26 2708.43 1158.26Z" fill="#D9E1F2" fill-rule="evenodd"/><path d="M3019.38 1052.26 3330.33 1052.26 3330.33 1158.26 3019.38 1158.26Z" fill="#D9E1F2" fill-rule="evenodd"/><path d="M3330.33 1052.26 3641.28 1052.26 3641.28 1158.26 3330.33 1158.26Z" fill="#E2EFDA" fill-rule="evenodd"/><path d="M3641.28 1052.26 3952.23 1052.26 3952.23 1158.26 3641.28 1158.26Z" fill="#E2EFDA" fill-rule="evenodd"/><path d="M157.229 1158.26 842.732 1158.26 842.732 1264.27 157.229 1264.27Z" fill="#F2F2F2" fill-rule="evenodd"/><path d="M842.732 1158.26 1153.68 1158.26 1153.68 1264.27 842.732 1264.27Z" fill="#FCE4D6" fill-rule="evenodd"/><path d="M1153.68 1158.26 1464.63 1158.26 1464.63 1264.27 1153.68 1264.27Z" fill="#FCE4D6" fill-rule="evenodd"/><path d="M1464.63 1158.26 1775.58 1158.26 1775.58 1264.27 1464.63 1264.27Z" fill="#D9E1F2" fill-rule="evenodd"/><path d="M1775.58 1158.26 2086.53 1158.26 2086.53 1264.27 1775.58 1264.27Z" fill="#D9E1F2" fill-rule="evenodd"/><path d="M2086.53 1158.26 2397.48 1158.26 2397.48 1264.27 2086.53 1264.27Z" fill="#D9E1F2" fill-rule="evenodd"/><path d="M2397.48 1158.26 2708.43 1158.26 2708.43 1264.27 2397.48 1264.27Z" fill="#D9E1F2" fill-rule="evenodd"/><path d="M2708.43 1158.26 3019.38 1158.26 3019.38 1264.27 2708.43 1264.27Z" fill="#D9E1F2" fill-rule="evenodd"/><path d="M3019.38 1158.26 3330.33 1158.26 3330.33 1264.27 3019.38 1264.27Z" fill="#D9E1F2" fill-rule="evenodd"/><path d="M3330.33 1158.26 3641.28 1158.26 3641.28 1264.27 3330.33 1264.27Z" fill="#E2EFDA" fill-rule="evenodd"/><path d="M3641.28 1158.26 3952.23 1158.26 3952.23 1264.27 3641.28 1264.27Z" fill="#E2EFDA" fill-rule="evenodd"/><path d="M157.229 1264.27 842.732 1264.27 842.732 1370.27 157.229 1370.27Z" fill="#F2F2F2" fill-rule="evenodd"/><path d="M842.732 1264.27 1153.68 1264.27 1153.68 1370.27 842.732 1370.27Z" fill="#FCE4D6" fill-rule="evenodd"/><path d="M1153.68 1264.27 1464.63 1264.27 1464.63 1370.27 1153.68 1370.27Z" fill="#FCE4D6" fill-rule="evenodd"/><path d="M1464.63 1264.27 1775.58 1264.27 1775.58 1370.27 1464.63 1370.27Z" fill="#D9E1F2" fill-rule="evenodd"/><path d="M1775.58 1264.27 2086.53 1264.27 2086.53 1370.27 1775.58 1370.27Z" fill="#D9E1F2" fill-rule="evenodd"/><path d="M2086.53 1264.27 2397.48 1264.27 2397.48 1370.27 2086.53 1370.27Z" fill="#D9E1F2" fill-rule="evenodd"/><path d="M2397.48 1264.27 2708.43 1264.27 2708.43 1370.27 2397.48 1370.27Z" fill="#D9E1F2" fill-rule="evenodd"/><path d="M2708.43 1264.27 3019.38 1264.27 3019.38 1370.27 2708.43 1370.27Z" fill="#D9E1F2" fill-rule="evenodd"/><path d="M3019.38 1264.27 3330.33 1264.27 3330.33 1370.27 3019.38 1370.27Z" fill="#D9E1F2" fill-rule="evenodd"/><path d="M3330.33 1264.27 3641.28 1264.27 3641.28 1370.27 3330.33 1370.27Z" fill="#E2EFDA" fill-rule="evenodd"/><path d="M3641.28 1264.27 3952.23 1264.27 3952.23 1370.27 3641.28 1370.27Z" fill="#E2EFDA" fill-rule="evenodd"/><path d="M842.732 625.943 842.732 1372.57" stroke="#000000" stroke-width="4.58333" stroke-linejoin="round" stroke-miterlimit="10" fill="none" fill-rule="evenodd"/><path d="M1153.68 945.105 1153.68 1372.57" stroke="#000000" stroke-width="2.29167" stroke-linejoin="round" stroke-miterlimit="10" fill="none" fill-rule="evenodd"/><path d="M1464.63 625.943 1464.63 1372.57" stroke="#000000" stroke-width="4.58333" stroke-linejoin="round" stroke-miterlimit="10" fill="none" fill-rule="evenodd"/><path d="M1775.58 945.105 1775.58 1372.57" stroke="#000000" stroke-width="2.29167" stroke-linejoin="round" stroke-miterlimit="10" fill="none" fill-rule="evenodd"/><path d="M2086.53 945.105 2086.53 1372.57" stroke="#000000" stroke-width="2.29167" stroke-linejoin="round" stroke-miterlimit="10" fill="none" fill-rule="evenodd"/><path d="M2397.48 945.105 2397.48 1372.57" stroke="#000000" stroke-width="2.29167" stroke-linejoin="round" stroke-miterlimit="10" fill="none" fill-rule="evenodd"/><path d="M2708.43 945.105 2708.43 1372.57" stroke="#000000" stroke-width="2.29167" stroke-linejoin="round" stroke-miterlimit="10" fill="none" fill-rule="evenodd"/><path d="M3019.38 945.105 3019.38 1372.57" stroke="#000000" stroke-width="2.29167" stroke-linejoin="round" stroke-miterlimit="10" fill="none" fill-rule="evenodd"/><path d="M3330.33 625.943 3330.33 1372.57" stroke="#000000" stroke-width="4.58333" stroke-linejoin="round" stroke-miterlimit="10" fill="none" fill-rule="evenodd"/><path d="M3641.28 945.105 3641.28 1372.57" stroke="#000000" stroke-width="2.29167" stroke-linejoin="round" stroke-miterlimit="10" fill="none" fill-rule="evenodd"/><path d="M840.44 840.246 3954.52 840.246" stroke="#000000" stroke-width="4.58333" stroke-linejoin="round" stroke-miterlimit="10" fill="none" fill-rule="evenodd"/><path d="M154.937 946.251 3954.52 946.251" stroke="#000000" stroke-width="2.29167" stroke-linejoin="round" stroke-miterlimit="10" fill="none" fill-rule="evenodd"/><path d="M154.937 1052.26 3954.52 1052.26" stroke="#000000" stroke-width="2.29167" stroke-linejoin="round" stroke-miterlimit="10" fill="none" fill-rule="evenodd"/><path d="M154.937 1158.26 3954.52 1158.26" stroke="#000000" stroke-width="2.29167" stroke-linejoin="round" stroke-miterlimit="10" fill="none" fill-rule="evenodd"/><path d="M154.937 1264.27 3954.52 1264.27" stroke="#000000" stroke-width="2.29167" stroke-linejoin="round" stroke-miterlimit="10" fill="none" fill-rule="evenodd"/><path d="M157.229 625.943 157.229 1372.57" stroke="#000000" stroke-width="4.58333" stroke-linejoin="round" stroke-miterlimit="10" fill="none" fill-rule="evenodd"/><path d="M3952.23 625.943 3952.23 1372.57" stroke="#000000" stroke-width="4.58333" stroke-linejoin="round" stroke-miterlimit="10" fill="none" fill-rule="evenodd"/><path d="M154.937 628.234 3954.52 628.234" stroke="#000000" stroke-width="4.58333" stroke-linejoin="round" stroke-miterlimit="10" fill="none" fill-rule="evenodd"/><path d="M154.937 1370.27 3954.52 1370.27" stroke="#000000" stroke-width="4.58333" stroke-linejoin="round" stroke-miterlimit="10" fill="none" fill-rule="evenodd"/><text font-family="HarmonyOS Sans SC,HarmonyOS Sans SC_MSFontService,sans-serif" font-weight="400" font-size="50" transform="matrix(1 0 0 1 3560.78 702)">ETH3D</text><text font-family="HarmonyOS Sans SC,HarmonyOS Sans SC_MSFontService,sans-serif" font-weight="400" font-size="50" transform="matrix(1 0 0 1 2312.69 702)">Midd</text><text font-family="HarmonyOS Sans SC,HarmonyOS Sans SC_MSFontService,sans-serif" font-weight="400" font-size="50" transform="matrix(1 0 0 1 2428.99 702)">-</text><text font-family="HarmonyOS Sans SC,HarmonyOS Sans SC_MSFontService,sans-serif" font-weight="400" font-size="50" transform="matrix(1 0 0 1 2453.63 702)">T</text><text font-family="HarmonyOS Sans SC,HarmonyOS Sans SC_MSFontService,sans-serif" font-weight="400" font-size="50" transform="matrix(1 0 0 1 1053.71 702)">KITTI</text><text font-family="HarmonyOS Sans SC,HarmonyOS Sans SC_MSFontService,sans-serif" font-weight="400" font-size="50" transform="matrix(1 0 0 1 1171.73 702)">-</text><text font-family="HarmonyOS Sans SC,HarmonyOS Sans SC_MSFontService,sans-serif" font-weight="400" font-size="50" transform="matrix(1 0 0 1 1196.36 702)">15</text><text font-family="HarmonyOS Sans SC,HarmonyOS Sans SC_MSFontService,sans-serif" font-weight="400" font-size="50" transform="matrix(1 0 0 1 193.006 808)">Method</text><text font-family="HarmonyOS Sans SC,HarmonyOS Sans SC_MSFontService,sans-serif" font-weight="400" font-size="50" transform="matrix(1 0 0 1 3584.85 808)">&gt;1px</text><text font-family="HarmonyOS Sans SC,HarmonyOS Sans SC_MSFontService,sans-serif" font-weight="400" font-size="50" transform="matrix(1 0 0 1 2926.57 808)">Q(&gt;2px)</text><text font-family="HarmonyOS Sans SC,HarmonyOS Sans SC_MSFontService,sans-serif" font-weight="400" font-size="50" transform="matrix(1 0 0 1 2298.08 808)">H (&gt;2px)</text><text font-family="HarmonyOS Sans SC,HarmonyOS Sans SC_MSFontService,sans-serif" font-weight="400" font-size="50" transform="matrix(1 0 0 1 1680.76 808)">F (&gt;2px)</text><text font-family="HarmonyOS Sans SC,HarmonyOS Sans SC_MSFontService,sans-serif" font-weight="400" font-size="50" transform="matrix(1 0 0 1 1097.25 808)">&gt;3px</text><text font-family="HarmonyOS Sans SC,HarmonyOS Sans SC_MSFontService,sans-serif" font-weight="400" font-size="50" transform="matrix(1 0 0 1 3750.92 914)">Noc</text><text font-family="HarmonyOS Sans SC,HarmonyOS Sans SC_MSFontService,sans-serif" font-weight="400" font-size="50" transform="matrix(1 0 0 1 3457.16 914)">All</text><text font-family="HarmonyOS Sans SC,HarmonyOS Sans SC_MSFontService,sans-serif" font-weight="400" font-size="50" transform="matrix(1 0 0 1 3129.02 914)">Noc</text><text font-family="HarmonyOS Sans SC,HarmonyOS Sans SC_MSFontService,sans-serif" font-weight="400" font-size="50" transform="matrix(1 0 0 1 2835.26 914)">All</text><text font-family="HarmonyOS Sans SC,HarmonyOS Sans SC_MSFontService,sans-serif" font-weight="400" font-size="50" transform="matrix(1 0 0 1 2507.12 914)">Noc</text><text font-family="HarmonyOS Sans SC,HarmonyOS Sans SC_MSFontService,sans-serif" font-weight="400" font-size="50" transform="matrix(1 0 0 1 2213.36 914)">All</text><text font-family="HarmonyOS Sans SC,HarmonyOS Sans SC_MSFontService,sans-serif" font-weight="400" font-size="50" transform="matrix(1 0 0 1 1885.22 914)">Noc</text><text font-family="HarmonyOS Sans SC,HarmonyOS Sans SC_MSFontService,sans-serif" font-weight="400" font-size="50" transform="matrix(1 0 0 1 1591.46 914)">All</text><text font-family="HarmonyOS Sans SC,HarmonyOS Sans SC_MSFontService,sans-serif" font-weight="400" font-size="50" transform="matrix(1 0 0 1 1263.32 914)">Noc</text><text font-family="HarmonyOS Sans SC,HarmonyOS Sans SC_MSFontService,sans-serif" font-weight="400" font-size="50" transform="matrix(1 0 0 1 969.56 914)">All</text><text font-family="HarmonyOS Sans SC,HarmonyOS Sans SC_MSFontService,sans-serif" font-weight="400" font-size="50" transform="matrix(1 0 0 1 3748.05 1020)">1.98 </text><text font-family="HarmonyOS Sans SC,HarmonyOS Sans SC_MSFontService,sans-serif" font-weight="400" font-size="50" transform="matrix(1 0 0 1 3437.1 1020)">2.12 </text><text font-family="HarmonyOS Sans SC,HarmonyOS Sans SC_MSFontService,sans-serif" font-weight="400" font-size="50" transform="matrix(1 0 0 1 3126.16 1020)">4.42 </text><text font-family="HarmonyOS Sans SC,HarmonyOS Sans SC_MSFontService,sans-serif" font-weight="400" font-size="50" transform="matrix(1 0 0 1 2815.21 1020)">7.32 </text><text font-family="HarmonyOS Sans SC,HarmonyOS Sans SC_MSFontService,sans-serif" font-weight="400" font-size="50" transform="matrix(1 0 0 1 2504.26 1020)">3.70 </text><text font-family="HarmonyOS Sans SC,HarmonyOS Sans SC_MSFontService,sans-serif" font-weight="400" font-size="50" transform="matrix(1 0 0 1 2193.31 1020)">6.62 </text><text font-family="HarmonyOS Sans SC,HarmonyOS Sans SC_MSFontService,sans-serif" font-weight="400" font-size="50" transform="matrix(1 0 0 1 1882.36 1020)">4.30 </text><text font-family="HarmonyOS Sans SC,HarmonyOS Sans SC_MSFontService,sans-serif" font-weight="400" font-size="50" transform="matrix(1 0 0 1 1571.41 1020)">7.87 </text><text font-family="HarmonyOS Sans SC,HarmonyOS Sans SC_MSFontService,sans-serif" font-weight="400" font-size="50" transform="matrix(1 0 0 1 1260.46 1020)">4.08 </text><text font-family="HarmonyOS Sans SC,HarmonyOS Sans SC_MSFontService,sans-serif" font-weight="400" font-size="50" transform="matrix(1 0 0 1 949.509 1020)">4.26 </text><text font-family="HarmonyOS Sans SC,HarmonyOS Sans SC_MSFontService,sans-serif" font-weight="700" font-size="50" transform="matrix(1 0 0 1 193.006 1020)">MatchStereo</text><text font-family="HarmonyOS Sans SC,HarmonyOS Sans SC_MSFontService,sans-serif" font-weight="700" font-size="50" transform="matrix(1 0 0 1 501.808 1020)">-</text><text font-family="HarmonyOS Sans SC,HarmonyOS Sans SC_MSFontService,sans-serif" font-weight="700" font-size="50" transform="matrix(1 0 0 1 526.443 1020)">T</text><text font-family="HarmonyOS Sans SC,HarmonyOS Sans SC_MSFontService,sans-serif" font-weight="400" font-size="50" transform="matrix(1 0 0 1 3748.05 1126)">1.81 </text><text font-family="HarmonyOS Sans SC,HarmonyOS Sans SC_MSFontService,sans-serif" font-weight="400" font-size="50" transform="matrix(1 0 0 1 3437.1 1126)">1.91 </text><text font-family="HarmonyOS Sans SC,HarmonyOS Sans SC_MSFontService,sans-serif" font-weight="400" font-size="50" transform="matrix(1 0 0 1 3126.16 1126)">3.16 </text><text font-family="HarmonyOS Sans SC,HarmonyOS Sans SC_MSFontService,sans-serif" font-weight="400" font-size="50" transform="matrix(1 0 0 1 2815.21 1126)">5.15 </text><text font-family="HarmonyOS Sans SC,HarmonyOS Sans SC_MSFontService,sans-serif" font-weight="400" font-size="50" transform="matrix(1 0 0 1 2504.26 1126)">2.75 </text><text font-family="HarmonyOS Sans SC,HarmonyOS Sans SC_MSFontService,sans-serif" font-weight="400" font-size="50" transform="matrix(1 0 0 1 2193.31 1126)">5.22 </text><text font-family="HarmonyOS Sans SC,HarmonyOS Sans SC_MSFontService,sans-serif" font-weight="400" font-size="50" transform="matrix(1 0 0 1 1882.36 1126)">3.54 </text><text font-family="HarmonyOS Sans SC,HarmonyOS Sans SC_MSFontService,sans-serif" font-weight="400" font-size="50" transform="matrix(1 0 0 1 1571.41 1126)">6.59 </text><text font-family="HarmonyOS Sans SC,HarmonyOS Sans SC_MSFontService,sans-serif" font-weight="400" font-size="50" transform="matrix(1 0 0 1 1260.46 1126)">3.74 </text><text font-family="HarmonyOS Sans SC,HarmonyOS Sans SC_MSFontService,sans-serif" font-weight="400" font-size="50" transform="matrix(1 0 0 1 949.509 1126)">3.90 </text><text font-family="HarmonyOS Sans SC,HarmonyOS Sans SC_MSFontService,sans-serif" font-weight="700" font-size="50" transform="matrix(1 0 0 1 193.006 1126)">MatchStereo</text><text font-family="HarmonyOS Sans SC,HarmonyOS Sans SC_MSFontService,sans-serif" font-weight="700" font-size="50" transform="matrix(1 0 0 1 501.808 1126)">-</text><text font-family="HarmonyOS Sans SC,HarmonyOS Sans SC_MSFontService,sans-serif" font-weight="700" font-size="50" transform="matrix(1 0 0 1 526.443 1126)">S</text><text font-family="HarmonyOS Sans SC,HarmonyOS Sans SC_MSFontService,sans-serif" font-weight="400" font-size="50" transform="matrix(1 0 0 1 3748.05 1232)">1.27 </text><text font-family="HarmonyOS Sans SC,HarmonyOS Sans SC_MSFontService,sans-serif" font-weight="700" font-size="50" transform="matrix(1 0 0 1 3433.67 1232)">1.36 </text><text font-family="HarmonyOS Sans SC,HarmonyOS Sans SC_MSFontService,sans-serif" font-weight="400" font-size="50" transform="matrix(1 0 0 1 3126.16 1232)">2.69 </text><text font-family="HarmonyOS Sans SC,HarmonyOS Sans SC_MSFontService,sans-serif" font-weight="400" font-size="50" transform="matrix(1 0 0 1 2815.21 1232)">4.58 </text><text font-family="HarmonyOS Sans SC,HarmonyOS Sans SC_MSFontService,sans-serif" font-weight="400" font-size="50" transform="matrix(1 0 0 1 2504.26 1232)">2.27 </text><text font-family="HarmonyOS Sans SC,HarmonyOS Sans SC_MSFontService,sans-serif" font-weight="400" font-size="50" transform="matrix(1 0 0 1 2193.31 1232)">4.46 </text><text font-family="HarmonyOS Sans SC,HarmonyOS Sans SC_MSFontService,sans-serif" font-weight="700" font-size="50" transform="matrix(1 0 0 1 1878.92 1232)">2.84 </text><text font-family="HarmonyOS Sans SC,HarmonyOS Sans SC_MSFontService,sans-serif" font-weight="700" font-size="50" transform="matrix(1 0 0 1 1567.97 1232)">5.67 </text><text font-family="HarmonyOS Sans SC,HarmonyOS Sans SC_MSFontService,sans-serif" font-weight="700" font-size="50" transform="matrix(1 0 0 1 1257.02 1232)">3.63 </text><text font-family="HarmonyOS Sans SC,HarmonyOS Sans SC_MSFontService,sans-serif" font-weight="700" font-size="50" transform="matrix(1 0 0 1 946.071 1232)">3.78 </text><text font-family="HarmonyOS Sans SC,HarmonyOS Sans SC_MSFontService,sans-serif" font-weight="700" font-size="50" transform="matrix(1 0 0 1 193.006 1232)">MatchStereo</text><text font-family="HarmonyOS Sans SC,HarmonyOS Sans SC_MSFontService,sans-serif" font-weight="700" font-size="50" transform="matrix(1 0 0 1 501.808 1232)">-</text><text font-family="HarmonyOS Sans SC,HarmonyOS Sans SC_MSFontService,sans-serif" font-weight="700" font-size="50" transform="matrix(1 0 0 1 526.443 1232)">B</text><text font-family="HarmonyOS Sans SC,HarmonyOS Sans SC_MSFontService,sans-serif" font-weight="400" font-size="50" transform="matrix(1 0 0 1 3748.05 1338)">2.43 </text><text font-family="HarmonyOS Sans SC,HarmonyOS Sans SC_MSFontService,sans-serif" font-weight="400" font-size="50" transform="matrix(1 0 0 1 3437.1 1338)">2.68 </text><text font-family="HarmonyOS Sans SC,HarmonyOS Sans SC_MSFontService,sans-serif" font-weight="700" font-size="50" transform="matrix(1 0 0 1 3122.72 1338)">1.40 </text><text font-family="HarmonyOS Sans SC,HarmonyOS Sans SC_MSFontService,sans-serif" font-weight="700" font-size="50" transform="matrix(1 0 0 1 2811.77 1338)">2.98 </text><text font-family="HarmonyOS Sans SC,HarmonyOS Sans SC_MSFontService,sans-serif" font-weight="700" font-size="50" transform="matrix(1 0 0 1 2500.82 1338)">2.04 </text><text font-family="HarmonyOS Sans SC,HarmonyOS Sans SC_MSFontService,sans-serif" font-weight="700" font-size="50" transform="matrix(1 0 0 1 2189.87 1338)">4.07 </text><text font-family="HarmonyOS Sans SC,HarmonyOS Sans SC_MSFontService,sans-serif" font-weight="400" font-size="50" transform="matrix(1 0 0 1 1882.36 1338)">3.59 </text><text font-family="HarmonyOS Sans SC,HarmonyOS Sans SC_MSFontService,sans-serif" font-weight="400" font-size="50" transform="matrix(1 0 0 1 1571.41 1338)">6.56 </text><text font-family="HarmonyOS Sans SC,HarmonyOS Sans SC_MSFontService,sans-serif" font-weight="400" font-size="50" transform="matrix(1 0 0 1 1260.46 1338)">3.81 </text><text font-family="HarmonyOS Sans SC,HarmonyOS Sans SC_MSFontService,sans-serif" font-weight="400" font-size="50" transform="matrix(1 0 0 1 949.509 1338)">3.98 </text><text font-family="HarmonyOS Sans SC,HarmonyOS Sans SC_MSFontService,sans-serif" font-weight="700" font-size="50" transform="matrix(1 0 0 1 193.006 1338)">MatchStereo</text><text font-family="HarmonyOS Sans SC,HarmonyOS Sans SC_MSFontService,sans-serif" font-weight="700" font-size="50" transform="matrix(1 0 0 1 501.808 1338)">-</text><text font-family="HarmonyOS Sans SC,HarmonyOS Sans SC_MSFontService,sans-serif" font-weight="700" font-size="50" transform="matrix(1 0 0 1 526.443 1338)">B *</text></g></svg>